<?xml version="1.0" encoding="UTF-8"?>
<!-- Square crop of icon mark only (no wordmark), navy background -->
<svg version="1.1" xmlns="http://www.w3.org/2000/svg" viewBox="873 86 1070 1070">
<rect x="873" y="86" width="1070" height="1070" fill="#0F1B2D"/>
<path d="M0,0 L559,0 L555,7 L541,27 L528,46 L512,69 L502,84 L88,84 L88,642 L575,641 L589,621 L605,598 L621,575 L635,555 L646,539 L660,519 L671,503 L687,480 L698,464 L709,448 L722,429 L738,406 L753,384 L767,364 L782,342 L793,326 L797,321 L1070,321 L1070,726 L703,726 L708,717 L720,700 L730,685 L744,665 L752,653 L760,642 L982,642 L982,405 L836,406 L824,423 L807,448 L796,464 L785,480 L908,481 L908,566 L725,567 L711,587 L698,606 L682,629 L671,645 L658,664 L646,681 L633,700 L619,720 L615,726 L0,726 Z " fill="#01274B" transform="translate(873,258)"/>
<path d="M0,0 L422,0 L422,245 L113,246 L99,266 L88,282 L75,301 L59,324 L46,343 L30,366 L19,382 L7,399 L-4,415 L-16,432 L-32,455 L-48,478 L-62,498 L-73,514 L-89,537 L-103,557 L-109,566 L-486,566 L-486,160 L-201,160 L-203,164 L-214,180 L-225,196 L-241,219 L-252,235 L-258,244 L-396,244 L-396,481 L-148,480 L-135,462 L-122,443 L-108,423 L-94,403 L-83,387 L-69,367 L-55,347 L-39,324 L-23,301 L-7,278 L4,262 L20,239 L36,216 L47,200 L58,184 L74,161 L75,160 L333,160 L333,85 L37,86 L26,102 L15,118 L1,138 L-12,157 L-26,177 L-39,196 L-55,219 L-66,235 L-78,252 L-89,268 L-103,288 L-119,311 L-135,334 L-148,353 L-162,373 L-173,389 L-184,405 L-281,405 L-279,401 L-266,382 L-250,359 L-234,336 L-218,313 L-202,290 L-186,267 L-170,244 L-159,228 L-143,205 L-129,185 L-118,169 L-104,149 L-93,133 L-77,110 L-61,87 L-45,64 L-34,48 L-20,28 L-7,9 Z " fill="#0A717F" transform="translate(1521,258)"/>
<path d="M0,0 L273,0 L273,405 L-94,405 L-89,396 L-77,379 L-67,364 L-53,344 L-45,332 L-37,321 L185,321 L185,84 L38,85 L36,84 L-58,84 L-51,73 L-37,53 L-26,37 L-15,21 L-4,5 Z " fill="#097180" transform="translate(1670,579)"/>
<path d="M0,0 L283,0 L281,5 L268,23 L260,35 L244,58 L233,74 L227,83 L89,83 L89,320 L337,320 L335,324 L322,343 L308,363 L297,379 L286,395 L280,404 L0,404 Z " fill="#01264A" transform="translate(1036,419)"/>
<path d="M0,0 L125,0 L125,85 L-58,85 L-51,74 L-35,51 L-22,32 L-8,12 Z " fill="#087180" transform="translate(1656,739)"/>
</svg>
