<?xml version="1.0" encoding="UTF-8"?>
<!-- Background removed for transparent use on dark nav -->
<svg version="1.1" xmlns="http://www.w3.org/2000/svg" width="2816" height="1536" viewBox="0 0 2816 1536">
<path d="M0,0 L559,0 L555,7 L541,27 L528,46 L512,69 L502,84 L88,84 L88,642 L575,641 L589,621 L605,598 L621,575 L635,555 L646,539 L660,519 L671,503 L687,480 L698,464 L709,448 L722,429 L738,406 L753,384 L767,364 L782,342 L793,326 L797,321 L1070,321 L1070,726 L703,726 L708,717 L720,700 L730,685 L744,665 L752,653 L760,642 L982,642 L982,405 L836,406 L824,423 L807,448 L796,464 L785,480 L908,481 L908,566 L725,567 L711,587 L698,606 L682,629 L671,645 L658,664 L646,681 L633,700 L619,720 L615,726 L0,726 Z " fill="#01274B" transform="translate(873,258)"/>
<path d="M0,0 L422,0 L422,245 L113,246 L99,266 L88,282 L75,301 L59,324 L46,343 L30,366 L19,382 L7,399 L-4,415 L-16,432 L-32,455 L-48,478 L-62,498 L-73,514 L-89,537 L-103,557 L-109,566 L-486,566 L-486,160 L-201,160 L-203,164 L-214,180 L-225,196 L-241,219 L-252,235 L-258,244 L-396,244 L-396,481 L-148,480 L-135,462 L-122,443 L-108,423 L-94,403 L-83,387 L-69,367 L-55,347 L-39,324 L-23,301 L-7,278 L4,262 L20,239 L36,216 L47,200 L58,184 L74,161 L75,160 L333,160 L333,85 L37,86 L26,102 L15,118 L1,138 L-12,157 L-26,177 L-39,196 L-55,219 L-66,235 L-78,252 L-89,268 L-103,288 L-119,311 L-135,334 L-148,353 L-162,373 L-173,389 L-184,405 L-281,405 L-279,401 L-266,382 L-250,359 L-234,336 L-218,313 L-202,290 L-186,267 L-170,244 L-159,228 L-143,205 L-129,185 L-118,169 L-104,149 L-93,133 L-77,110 L-61,87 L-45,64 L-34,48 L-20,28 L-7,9 Z " fill="#0A717F" transform="translate(1521,258)"/>
<path d="M0,0 L273,0 L273,405 L-94,405 L-89,396 L-77,379 L-67,364 L-53,344 L-45,332 L-37,321 L185,321 L185,84 L38,85 L36,84 L-58,84 L-51,73 L-37,53 L-26,37 L-15,21 L-4,5 Z " fill="#097180" transform="translate(1670,579)"/>
<path d="M0,0 L283,0 L281,5 L268,23 L260,35 L244,58 L233,74 L227,83 L89,83 L89,320 L337,320 L335,324 L322,343 L308,363 L297,379 L286,395 L280,404 L0,404 Z " fill="#01264A" transform="translate(1036,419)"/>
<path d="M0,0 L29,0 L45,4 L56,9 L66,15 L76,24 L83,32 L91,46 L95,60 L97,70 L97,89 L94,104 L87,120 L79,131 L73,138 L61,147 L49,153 L41,156 L27,159 L3,159 L-15,155 L-27,150 L-40,141 L-48,134 L-57,122 L-64,107 L-67,96 L-68,89 L-68,67 L-64,52 L-56,36 L-48,25 L-37,15 L-23,7 L-10,2 Z " fill="#05284C" transform="translate(1423,1133)"/>
<path d="M0,0 L26,0 L47,6 L58,12 L69,21 L78,32 L86,48 L90,64 L90,91 L-29,91 L-25,103 L-19,112 L-11,119 L0,124 L7,126 L29,126 L41,123 L51,118 L59,110 L66,116 L77,127 L81,133 L75,140 L63,149 L52,154 L36,158 L31,159 L4,159 L-13,155 L-25,150 L-36,143 L-46,134 L-53,126 L-60,114 L-65,100 L-67,90 L-67,70 L-63,51 L-55,35 L-47,24 L-40,17 L-30,10 L-17,4 L-5,1 Z " fill="#0B6B7C" transform="translate(1787,1133)"/>
<path d="M0,0 L27,0 L38,2 L53,7 L63,13 L73,23 L81,39 L84,54 L84,156 L49,156 L48,141 L43,147 L31,154 L12,159 L-9,159 L-20,157 L-33,152 L-43,145 L-50,137 L-55,127 L-57,120 L-57,104 L-53,91 L-44,79 L-33,72 L-20,67 L-8,65 L47,65 L44,49 L38,40 L29,34 L19,31 L1,31 L-14,34 L-28,40 L-37,46 L-40,42 L-51,21 L-51,18 L-37,10 L-22,4 L-8,1 Z " fill="#04284B" transform="translate(1124,1133)"/>
<path d="M0,0 L34,0 L50,3 L66,8 L82,16 L85,18 L84,23 L74,48 L69,47 L52,39 L35,34 L27,33 L4,33 L-7,36 L-16,41 L-22,48 L-24,52 L-24,64 L-19,72 L-3,80 L23,87 L47,93 L63,99 L77,108 L85,116 L92,130 L94,140 L94,154 L90,169 L84,180 L77,188 L64,197 L52,202 L43,205 L30,207 L-7,207 L-27,203 L-42,198 L-59,189 L-68,182 L-65,173 L-55,152 L-51,153 L-37,162 L-24,168 L-11,172 L1,174 L25,174 L40,170 L48,165 L53,159 L55,154 L55,144 L50,136 L41,130 L20,123 L-12,115 L-29,109 L-42,102 L-52,93 L-58,85 L-62,74 L-63,70 L-63,50 L-58,35 L-51,25 L-42,16 L-28,8 L-18,4 Z " fill="#0A6B7C" transform="translate(1607,1085)"/>
<path d="M0,0 L32,0 L48,3 L68,11 L84,21 L97,33 L96,37 L80,52 L73,58 L69,56 L60,48 L46,40 L33,36 L28,35 L2,35 L-13,40 L-24,46 L-36,57 L-42,65 L-49,80 L-52,94 L-52,112 L-48,128 L-44,138 L-35,151 L-28,158 L-17,165 L-5,170 L4,172 L28,172 L38,170 L50,165 L61,158 L71,148 L75,150 L83,157 L97,170 L95,175 L87,183 L74,193 L58,201 L40,206 L26,208 L4,208 L-17,204 L-33,198 L-47,190 L-58,181 L-69,170 L-79,155 L-86,139 L-91,120 L-91,88 L-87,71 L-81,56 L-74,44 L-66,34 L-55,23 L-45,16 L-30,8 L-15,3 Z " fill="#05284B" transform="translate(869,1085)"/>
<path d="M0,0 L125,0 L125,85 L-58,85 L-51,74 L-35,51 L-22,32 L-8,12 Z " fill="#087180" transform="translate(1656,739)"/>
<path d="M0,0 L27,0 L41,3 L54,8 L64,15 L71,21 L80,34 L79,37 L53,53 L50,52 L44,44 L37,38 L29,34 L22,32 L5,32 L-5,35 L-16,42 L-24,51 L-29,62 L-31,70 L-31,85 L-29,96 L-22,109 L-15,117 L-5,123 L6,126 L22,126 L35,121 L43,115 L49,108 L51,105 L55,106 L79,120 L80,124 L73,134 L67,141 L54,150 L42,155 L25,159 L3,159 L-16,155 L-32,147 L-43,139 L-51,131 L-58,121 L-64,109 L-67,100 L-69,86 L-69,69 L-66,55 L-61,43 L-54,31 L-44,20 L-32,11 L-17,4 L-5,1 Z " fill="#0A6A7B" transform="translate(1966,1133)"/>
<path d="M0,0 L37,0 L37,213 L0,213 Z " fill="#02274B" transform="translate(997,1077)"/>
<path d="M0,0 L14,0 L14,34 L-5,35 L-17,39 L-25,45 L-32,53 L-36,63 L-38,72 L-39,157 L-76,157 L-76,2 L-41,2 L-41,23 L-39,23 L-37,19 L-30,12 L-16,4 Z " fill="#03274B" transform="translate(1327,1133)"/>
<path d="M0,0 L19,0 L29,3 L40,10 L48,19 L53,29 L55,37 L55,60 L50,73 L42,84 L34,90 L22,95 L19,96 L2,96 L-8,93 L-18,87 L-26,79 L-32,67 L-35,55 L-35,40 L-32,28 L-26,17 L-21,11 L-11,4 Z " fill="#FCFCFC" transform="translate(1427,1164)"/>
<path d="M0,0 L12,0 L24,3 L33,8 L39,13 L45,23 L49,34 L49,37 L-36,37 L-34,27 L-28,16 L-20,8 L-8,2 Z " fill="#FCFDFD" transform="translate(1793,1162)"/>
<path d="M0,0 L51,0 L51,19 L45,28 L40,33 L32,38 L22,41 L3,41 L-6,38 L-12,34 L-17,24 L-17,15 L-13,7 L-6,2 Z " fill="#FAFCFC" transform="translate(1120,1223)"/>
</svg>
